<svg xmlns="http://www.w3.org/2000/svg" width="1072px" height="443px"><path d="M747.175,178.481c1.292,12.58,22.664,2.314,22.664,2.314s-2.983,19.066-14.967,21.046 c-11.983,1.979-19.275-12.836-19.275-12.836l-121.226,34.083l7.301,108.781c-0.246,10.678-9.127,19.125-19.835,18.868l-18.924-0.516 l5.291,92.78l-14.124-3.967l-7.062-89.246l-51.324-1.397l-5.24,90.007l-15.291,0.887l5.588-91.3l-20.859-0.567 c-10.708-0.258-19.188-9.123-18.941-19.801l8.202-108.624l-110.307-3.778c0,0-2.074,9.794-11.091,11.564 c-9.016,1.77-15.615-3.191-15.615-3.191s17.46-9.278,15.127-20.959c-2.333-11.681-21.524-5.16-21.524-5.16 s-1.958-13.752,15.529-17.186c12.11-2.378,20.107,18.011,20.107,18.011l110.696,8.821c3.466-5.781,9.857-9.592,17.096-9.418 l40.633,0.978l2.167-27.327c-64.561,0.396-129.513-5.315-129.513-5.315c-8.438,0.082-15.354-6.678-15.449-15.1 c0,0-3.821-34.832-4.213-69.956c-0.329-29.54,2.763-60.343,2.763-60.343c-0.094-8.421,6.672-15.314,15.11-15.396 c0,0,65.864-4.492,132.858-5.142c69.984-0.68,141.229,2.482,141.229,2.482c8.438-0.082,15.355,6.679,15.449,15.101 c0,0,5.188,31.203,5.554,64.061c0.359,32.287-4.104,66.238-4.104,66.238c0.094,8.421-6.671,15.314-15.109,15.396 c0,0-61.301,6.365-127.502,7.739l-4.446,27.917l50.627,1.218c7.456,0.18,13.822,4.537,16.925,10.769l119.31-39.488 c0,0,9.121-21.222,17.802-20.524c8.683,0.698,17.006,11.816,17.006,11.816S745.882,165.901,747.175,178.481z"/><g><g><path fill="#666766" d="M326.416,289.772c-0.306,0.313-0.617,0.623-0.924,0.937c-0.163,0.176-0.305,0.33-0.425,0.459 C325.363,290.857,325.795,290.41,326.416,289.772z M260.052,176.902c13.509-5.602,29.066-6.342,43.883-0.918 c19.009,6.958,32.432,22.474,37.555,40.625c3.265-3.257,6.094-7.442,5.979-12.09c-7.409-16.536-21.227-30.181-39.602-36.878 c-16.99-6.192-34.83-5.345-50.322,1.055C254.325,171.046,256.556,177.191,260.052,176.902z M325.067,291.167 C324.43,291.832,324.486,291.791,325.067,291.167L325.067,291.167z M347.756,226.781c-1.494,0.293-2.913,0.389-4.255,0.364 c0.875,8.808-0.161,17.944-3.383,26.815c-4.268,11.748-19.561,28.496-21.72,30.848c0.339-0.346,0.682-0.688,1.02-1.033 c-1.31,1.344-1.535,1.596-1.02,1.033c-78.021,79.496-186.703,128.816-306.912,128.816c-12.48,0-20.479,5.996,6.999,5.996 c120.258,0,228.98-49.359,307.006-128.914c3.87-4.19,19.263-21.42,23.856-34.015c3.897-10.687,4.987-21.704,3.68-32.267 C351.611,225.5,349.878,226.363,347.756,226.781z M1060.448,413.626c-120.73,0-227.839-38.752-305.932-118.856 c-14.863-19.345-17.416-26.257-22.699-40.81c-11.46-31.555,4.739-66.466,36.184-77.977c14.816-5.424,30.374-4.684,43.883,0.918 c3.496,0.289,5.728-5.856,2.506-8.206c-15.491-6.399-33.332-7.247-50.32-1.055c-36.057,13.141-54.628,53.011-41.481,89.052 c6.156,16.879,10.052,25.432,24.933,44.072c78.092,80.105,185.199,118.855,305.932,118.855 C1080.928,419.623,1072.929,413.626,1060.448,413.626z"/></g></g><g><g><path fill="#FFFFFF" d="M644.016,48.567l-63.941,29.912l15.46,37.239l50.783-52.062L644.016,48.567z M446.335,63.172l59.18,53.596 l14.235-42.714L450.431,45.65L446.335,63.172z"/></g></g><g><g><path fill="#FFFFFF" d="M251.174,201.632l3.445,1.783l5.109-22.771l-1.449,0.034L251.174,201.632z M255.196,179.017 l-20.029,17.879l2.496,3.024l19.057-20.399L255.196,179.017z M251.725,176.109l-24.228,11.574l1.551,3.602l23.999-14.266 L251.725,176.109z M250.684,172.583l-26.763,2.2l0.168,3.917l27.506-4.797L250.684,172.583z M252.331,168.715l-21.256-6.166 l-1.629,3.519l22.983,4.093L252.331,168.715z M842.215,166.568l-0.177-3.874l-22.282,6.963l0.754,1.237L842.215,166.568z M820.286,172.823l0.324,1.571l25.505,8.399l1.372-3.673L820.286,172.823z M819.828,178.853l22.142,15.188l2.345-3.144 l-24.357-13.643L819.828,178.853z M817.293,181.518l15.288,22.067l3.31-2.104l-17.908-21.413L817.293,181.518z M813.119,182.025 l5.285,21.484l3.863-0.349l-7.945-21.943L813.119,182.025z"/></g></g></svg>